{"asset":{"version":"2.0","generator":"GLTFExporter"},"scenes":[{"name":"AuxScene","nodes":[0]}],"scene":0,"nodes":[{"mesh":0}],"bufferViews":[{"buffer":0,"byteOffset":0,"byteLength":2280,"target":34962,"byteStride":12},{"buffer":0,"byteOffset":2280,"byteLength":2280,"target":34962,"byteStride":12},{"buffer":0,"byteOffset":4560,"byteLength":2280,"target":34962,"byteStride":12},{"buffer":0,"byteOffset":6840,"byteLength":2292,"target":34963}],"buffers":[{"byteLength":9132,"uri":"data:application/octet-stream;base64,"}],"accessors":[{"bufferView":0,"componentType":5126,"count":190,"max":[0.04500000178813934,0.5,0.07999999821186066],"min":[-0.04500000178813934,-0.17999999225139618,-0.07999999821186066],"type":"VEC3"},{"bufferView":1,"componentType":5126,"count":190,"max":[0.8980392217636108,0.800000011920929,0.501960813999176],"min":[0.49803921580314636,0.3176470696926117,0],"type":"VEC3"},{"bufferView":2,"componentType":5126,"count":190,"max":[1,1,1],"min":[-1,-1,-0.9817842841148376],"type":"VEC3"},{"bufferView":3,"componentType":5123,"count":1146,"max":[189],"min":[0],"type":"SCALAR"}],"materials":[{"pbrMetallicRoughness":{"metallicFactor":0,"roughnessFactor":1},"doubleSided":true}],"meshes":[{"primitives":[{"mode":4,"attributes":{"POSITION":0,"COLOR_0":1,"NORMAL":2},"indices":3,"material":0}]}]}