{"asset":{"version":"2.0","generator":"GLTFExporter"},"scenes":[{"name":"AuxScene","nodes":[0]}],"scene":0,"nodes":[{"mesh":0}],"bufferViews":[{"buffer":0,"byteOffset":0,"byteLength":2952,"target":34962,"byteStride":12},{"buffer":0,"byteOffset":2952,"byteLength":2952,"target":34962,"byteStride":12},{"buffer":0,"byteOffset":5904,"byteLength":2952,"target":34962,"byteStride":12},{"buffer":0,"byteOffset":8856,"byteLength":2916,"target":34963}],"buffers":[{"byteLength":11772,"uri":"data:application/octet-stream;base64,"}],"accessors":[{"bufferView":0,"componentType":5126,"count":246,"max":[0.04500000178813934,1.414272665977478,0.06199999898672104],"min":[-0.04500000178813934,-0.33000001311302185,-0.06199999898672104],"type":"VEC3"},{"bufferView":1,"componentType":5126,"count":246,"max":[0.8980392217636108,0.800000011920929,0.501960813999176],"min":[0.49803921580314636,0.3176470696926117,0],"type":"VEC3"},{"bufferView":2,"componentType":5126,"count":246,"max":[1,1,1],"min":[-1,-1,-0.9853523969650269],"type":"VEC3"},{"bufferView":3,"componentType":5123,"count":1458,"max":[245],"min":[0],"type":"SCALAR"}],"materials":[{"pbrMetallicRoughness":{"metallicFactor":0,"roughnessFactor":1},"doubleSided":true}],"meshes":[{"primitives":[{"mode":4,"attributes":{"POSITION":0,"COLOR_0":1,"NORMAL":2},"indices":3,"material":0}]}]}